<?xml version="1.0" encoding="UTF-8"?>
<svg id="_레이어_1" data-name="레이어_1" xmlns="http://www.w3.org/2000/svg" version="1.1" viewBox="0 0 400 400">
  <!-- Generator: Adobe Illustrator 29.6.1, SVG Export Plug-In . SVG Version: 2.1.1 Build 9)  -->
  <defs>
    <style>
      .st0 {
        fill: #757575;
      }

      .st1 {
        fill: #f0f0f0;
      }

      .st2 {
        fill: #e08777;
      }
    </style>
  </defs>
  <g>
    <path class="st1" d="M107.33,55.35h185.66c29.62,0,53.67,24.05,53.67,53.67v185.66c0,29.62-24.05,53.67-53.67,53.67H107.33c-29.62,0-53.67-24.05-53.67-53.67V109.02c0-29.62,24.05-53.67,53.67-53.67Z"/>
    <path class="st0" d="M292.99,55.85c29.32,0,53.17,23.85,53.17,53.17v185.66c0,29.32-23.85,53.17-53.17,53.17H107.33c-29.32,0-53.17-23.85-53.17-53.17V109.03c0-29.32,23.85-53.17,53.17-53.17h185.66M292.99,54.85H107.33c-29.79,0-54.17,24.38-54.17,54.17v185.66c0,29.79,24.38,54.17,54.17,54.17h185.66c29.79,0,54.17-24.38,54.17-54.17V109.03c0-29.79-24.38-54.17-54.17-54.17h0Z"/>
  </g>
  <path class="st2" d="M311.35,293.56l-70.26-75.15c9.95-13.94,15.79-31,15.79-49.42,0-47.05-38.15-85.2-85.2-85.2s-85.2,38.15-85.2,85.2,38.15,85.2,85.2,85.2c16.22,0,31.39-4.54,44.3-12.41l70.32,75.21c3.48,3.72,9.38,3.92,13.1.44l11.52-10.77c3.72-3.48,3.92-9.37.44-13.1ZM120.11,168.99c0-28.48,23.09-51.57,51.57-51.57s51.58,23.09,51.58,51.57-23.09,51.58-51.58,51.58-51.57-23.09-51.57-51.58Z"/>
</svg>