<?xml version="1.0" encoding="UTF-8"?>
<svg id="_레이어_1" data-name="레이어_1" xmlns="http://www.w3.org/2000/svg" version="1.1" viewBox="0 0 400 400">
  <!-- Generator: Adobe Illustrator 29.6.1, SVG Export Plug-In . SVG Version: 2.1.1 Build 9)  -->
  <defs>
    <style>
      .st0 {
        fill: #d4d4d4;
      }
    </style>
  </defs>
  <path class="st0" d="M354.21,180.67l-148.19-107.02c-3.6-2.6-8.45-2.6-12.05,0L45.78,180.67c-8.09,5.84-3.96,18.63,6.02,18.63h42.2v117c0,6.6,5.4,12,12,12h188c6.6,0,12-5.4,12-12v-117h42.19c9.98,0,14.12-12.78,6.02-18.63ZM200,155c19.33,0,35,15.67,35,35s-15.67,35-35,35-35-15.67-35-35,15.67-35,35-35ZM277,301H123v-4.76c0-36.03,29.21-65.24,65.24-65.24h23.52c36.03,0,65.24,29.21,65.24,65.24v4.76Z"/>
</svg>