<?xml version="1.0" encoding="UTF-8"?>
<svg id="_레이어_1" data-name="레이어_1" xmlns="http://www.w3.org/2000/svg" version="1.1" viewBox="0 0 400 400">
  <!-- Generator: Adobe Illustrator 29.6.1, SVG Export Plug-In . SVG Version: 2.1.1 Build 9)  -->
  <defs>
    <style>
      .st0 {
        fill: none;
        stroke: #000;
        stroke-miterlimit: 10;
        stroke-width: 16px;
      }
    </style>
  </defs>
  <path class="st0" d="M375,309.75c0,10.16-52.37,18.77-124.41,21.64-16.04.57-32.96.9-50.59.9-21.18,0-41.47-.49-60.25-1.39-66.99-3.11-114.75-11.39-114.75-21.15,0-3.53,6.2-6.89,17.28-9.84V112.87c3.63-6.64,7.8-13.03,12.4-19.02C86.14,52.21,138.42,25,197.52,25s111.29,27.21,142.84,68.85c4.79,6.31,9.13,12.87,12.85,19.84v185.08c13.91,3.28,21.8,6.97,21.8,10.98Z"/>
  <path class="st0" d="M250.59,331.39c-4.25,24.75-27.47,43.61-55.38,43.61s-51.39-19.18-55.47-44.1c18.78.9,39.08,1.39,60.25,1.39,17.63,0,34.56-.33,50.59-.9Z"/>
</svg>