<?xml version="1.0" encoding="utf-8"?>
<!-- Generator: Adobe Illustrator 23.0.3, SVG Export Plug-In . SVG Version: 6.00 Build 0)  -->
<svg version="1.1" id="Layer_1" xmlns="http://www.w3.org/2000/svg" xmlns:xlink="http://www.w3.org/1999/xlink" x="0px" y="0px"
	 viewBox="0 0 300 109" style="enable-background:new 0 0 300 109;" xml:space="preserve">
<style type="text/css">
	.st0{fill:#FFFFFF;}
	.st1{stroke:#FFFFFF;stroke-miterlimit:10;}
</style>
<g>
	<g>
		<g>
			<polygon class="st0" points="51.5,20.63 101.67,58 51.5,95.37 			"/>
			<path d="M52,21.62L100.83,58L52,94.38V21.62 M51,19.63v76.74L102.5,58L51,19.63L51,19.63z"/>
		</g>
		<g>
			<path class="st0" d="M178.25,97.5c-39.78,0-72.91-35.69-76.33-39.5c3.43-3.81,36.56-39.5,76.33-39.5s72.91,35.69,76.33,39.5
				C251.16,61.81,218.02,97.5,178.25,97.5z"/>
			<path d="M178.25,19c21.68,0,41.24,10.76,53.82,19.78c11.67,8.37,19.68,16.84,21.84,19.22c-2.16,2.37-10.16,10.85-21.84,19.22
				C219.49,86.24,199.93,97,178.25,97s-41.24-10.76-53.82-19.78c-11.67-8.37-19.68-16.84-21.84-19.22
				c2.16-2.37,10.16-10.85,21.84-19.22C137.01,29.76,156.57,19,178.25,19 M178.25,18c-42.53,0-77,40-77,40s34.47,40,77,40
				s77-40,77-40S220.78,18,178.25,18L178.25,18z"/>
		</g>
	</g>
	<circle class="st1" cx="220.5" cy="47.5" r="5"/>
</g>
</svg>
