<?xml version="1.0" encoding="UTF-8"?>
<svg id="_레이어_1" data-name="레이어_1" xmlns="http://www.w3.org/2000/svg" version="1.1" viewBox="0 0 800 800">
  <!-- Generator: Adobe Illustrator 29.6.1, SVG Export Plug-In . SVG Version: 2.1.1 Build 9)  -->
  <defs>
    <style>
      .st0 {
        fill: #f44336;
      }
    </style>
  </defs>
  <polygon class="st0" points="121.61 290.04 121.61 489.7 82.5 495.88 39.28 384.73 39.28 500 6.34 504.11 6.34 292.1 38.37 291.17 86.62 403.31 86.62 290.04 121.61 290.04"/>
  <path class="st0" d="M247.18,322.97c-19.38,1.91-39.29,1.87-59.69,0v49.4h47.34v32.93h-47.34v45.28c19.81-5.12,39.72-6.76,59.69-6.18v30.88l-94.68,10.29v-195.54h94.68v32.93Z"/>
  <path class="st0" d="M333.63,471.17c-11.02,1.68-22,2.38-32.93,2.06v-150.26h-32.93l-.21-33.25,99.01.31v32.93h-32.93v148.2Z"/>
  <path class="st0" d="M414.66,469.9h-32.57v-180.18h91.19v32.57h-58.62v49.04h45.35v32.31h-45.35v66.26Z"/>
  <path class="st0" d="M529.17,444.41l55.58,4.12v30.88l-88.51-6.18.07-183.51h34.62l-1.76,154.69Z"/>
  <path class="st0" d="M644.44,483.52c0,4.12-31.56-1.5-32.93,0l.4-193.8h32.57s-.03,189.68-.03,193.8Z"/>
  <path class="st0" d="M793.66,504.89l-38.67-6.18-23.34-61.98-25.46,57.08-34.99-4.12,43.23-98.8-39.14-99.12h36.23l21.44,53.83,21.08-53.83h36.76l-42.18,99.77,45.04,113.34Z"/>
  <path class="st0" d="M10.47,510.28"/>
</svg>