<?xml version="1.0" encoding="UTF-8"?>
<svg id="_레이어_1" xmlns="http://www.w3.org/2000/svg" version="1.1" viewBox="0 0 1600 800">
  <!-- Generator: Adobe Illustrator 29.6.1, SVG Export Plug-In . SVG Version: 2.1.1 Build 9)  -->
  <defs>
    <style>
      .st0 {
        fill: #ed2629;
      }

      .st1 {
        stroke: red;
        stroke-miterlimit: 10;
      }

      .st1, .st2 {
        fill: #fff;
      }

      .st3 {
        fill: #b41614;
      }

      .st4 {
        fill: #c61816;
      }

      .st5 {
        fill: gray;
      }
    </style>
  </defs>
  <g>
    <rect class="st4" x="52.3" y="100.1" width="28.12" height="139.92"/>
    <rect class="st3" x="107.9" y="99.63" width="28.12" height="139.92"/>
    <polygon class="st0" points="135.8 240.02 107.68 240.02 52.3 100.1 80.42 100.1 135.8 240.02"/>
  </g>
  <g>
    <path class="st5" d="M200.71,135.2c4.04,0,7.64.82,10.85,2.43,3.21,1.62,5.72,3.84,7.55,6.65s2.75,6.08,2.75,9.76-.92,6.86-2.75,9.67c-1.85,2.81-4.36,5.02-7.55,6.62-3.21,1.6-6.83,2.4-10.85,2.4s-7.55-.8-10.76-2.4c-3.21-1.6-5.72-3.8-7.55-6.62-1.85-2.81-2.75-6.04-2.75-9.67s.92-6.95,2.75-9.76c1.83-2.81,4.36-5.04,7.55-6.65,3.21-1.62,6.79-2.43,10.76-2.43ZM200.71,142.79c-2.32,0-4.38.47-6.23,1.41s-3.31,2.24-4.4,3.87c-1.1,1.65-1.65,3.65-1.65,5.97s.54,4.17,1.65,5.84c1.1,1.68,2.57,2.99,4.4,3.93s3.91,1.41,6.23,1.41,4.49-.47,6.36-1.41,3.31-2.24,4.36-3.93c1.03-1.68,1.56-3.63,1.56-5.84,0-2.33-.53-4.32-1.56-5.97s-2.5-2.94-4.36-3.87-3.98-1.41-6.36-1.41ZM218.77,178.45c5.63,0,10.5.59,14.6,1.79s7.24,2.92,9.47,5.16c2.23,2.24,3.33,4.97,3.33,8.15s-1.1,5.92-3.33,8.18-5.38,3.99-9.47,5.16-8.95,1.75-14.6,1.75-10.5-.59-14.58-1.75c-4.09-1.16-7.26-2.88-9.51-5.16-2.26-2.28-3.39-5-3.39-8.18s1.12-5.9,3.39-8.15c2.25-2.24,5.43-3.96,9.51-5.16,4.09-1.2,8.95-1.79,14.58-1.79ZM218.77,185.45c-3.86,0-7.15.31-9.87.94-2.73.63-4.8,1.53-6.23,2.73-1.43,1.2-2.14,2.67-2.14,4.43s.71,3.25,2.14,4.48c1.43,1.22,3.5,2.15,6.23,2.78,2.73.63,6.01.94,9.87.94s7.14-.31,9.83-.94c2.7-.63,4.78-1.55,6.23-2.78,1.45-1.22,2.17-2.71,2.17-4.48s-.72-3.25-2.17-4.43c-1.45-1.2-3.53-2.1-6.23-2.73s-5.98-.94-9.83-.94ZM215.04,141.59h24.47v7.17h-24.47v-7.17ZM215.04,159.26h24.47v7.24h-24.47v-7.24ZM236.48,130.84h9.35v45.89h-9.35v-45.89Z"/>
    <path class="st5" d="M260.68,194.74l-1.25-7.33c4.8,0,10.05-.03,15.74-.09s11.54-.26,17.53-.59c5.99-.35,11.74-.89,17.26-1.62l.71,6.48c-5.76,1.02-11.59,1.77-17.53,2.22-5.92.45-11.65.73-17.17.82-5.52.09-10.61.12-15.3.12l.02-.02ZM260.84,139.89h48.21v7.09h-48.21v-7.09ZM285.04,150.8c3.8,0,7.15.61,10.09,1.84,2.93,1.22,5.23,2.92,6.9,5.07s2.5,4.72,2.5,7.68-.83,5.45-2.5,7.64-3.97,3.87-6.9,5.07-6.3,1.79-10.09,1.79-7.24-.59-10.18-1.79-5.22-2.88-6.85-5.07-2.44-4.74-2.44-7.64.81-5.52,2.44-7.68c1.63-2.15,3.91-3.86,6.85-5.07s6.32-1.84,10.18-1.84ZM285.04,157.62c-3.21,0-5.78.69-7.73,2.08s-2.93,3.28-2.93,5.68.98,4.27,2.93,5.63,4.53,2.05,7.73,2.05,5.78-.68,7.73-2.05,2.93-3.25,2.93-5.63-.98-4.27-2.93-5.68c-1.96-1.39-4.53-2.08-7.73-2.08ZM280.33,131.02h9.35v13.91h-9.35v-13.91ZM280.33,177.16h9.35v12.63h-9.35v-12.63ZM314.49,130.84h9.35v77.96h-9.35v-77.96ZM320.72,163.27h14.67v7.42h-14.67v-7.42Z"/>
  </g>
  <polygon class="st2" points="631.22 262.53 611.13 331.74 575.41 331.74 575.41 406.15 472.71 406.15 472.71 331.74 346.77 331.74 303.05 406.15 198.87 406.15 275.5 273.4 281.78 262.53 631.22 262.53"/>
  <polygon class="st2" points="582.85 490.99 140.82 490.99 163.15 419.55 600.71 419.55 582.85 490.99"/>
  <path class="st1" d="M149.3,669.47l1.93,1.61h-1.03c-.3-.55-.6-1.09-.91-1.61h.01Z"/>
  <path class="st2" d="M493.3,511.82H194.83c-26.85,0-58.24,22.99-58.24,52.09l-8.75,37.06-59.28-.13,82.23,68.63,1.93,1.61h340.82c32.74-5.95,48.37-106.58,48.37-106.58,15.15-41.09-6.7-55.65-48.62-52.67h0ZM426.58,601.12h-206.88l8.93-20.84h209.85l-11.91,20.84h.01Z"/>
  <polygon class="st2" points="919.21 324.3 901.35 391.27 901.13 391.27 919.21 324.3"/>
  <polygon class="st2" points="1487.74 324.3 1465.42 391.27 1078.46 391.27 1096.32 324.3 1230.03 324.3 1240.68 290.06 1346.35 290.06 1338.75 324.3 1487.74 324.3"/>
  <path class="st2" d="M1263.43,602.61l9.9-31.25h103.38c23.2,0,43.37-15.95,48.7-38.55l19.62-83.18c7.01-18.9-6.98-39.01-27.15-39.01h-300.79c-22.7,0-42.48,15.45-47.98,37.46l-20.7,82.79c-5.13,20.55,10.42,40.48,31.61,40.48h92.02l-11.98,31.25h-174.68l73.75-278.31h-102.69l-79.31,278.31h-192.23l20.29-74.42h158.98l36.98-136.92,18.08-66.97h-263.43l-23.81,66.97h160.51l-18.1,66.97h-155.81l-49.96,170.1c-6.27,21.34,9.73,42.73,31.98,42.73h854.41l83.35-68.46h-274.94ZM1160.32,501.4l7.44-20.84h165.2l-7.44,20.84h-165.2Z"/>
</svg>