<?xml version="1.0" encoding="UTF-8"?>
<svg id="_레이어_1" data-name="레이어_1" xmlns="http://www.w3.org/2000/svg" version="1.1" viewBox="0 0 800 800">
  <!-- Generator: Adobe Illustrator 29.5.1, SVG Export Plug-In . SVG Version: 2.1.0 Build 141)  -->
  <defs>
    <style>
      .st0 {
        fill: none;
      }

      .st0, .st1 {
        stroke: #000;
        stroke-miterlimit: 10;
      }

      .st2 {
        fill: #c92a12;
      }

      .st3 {
        fill: #d1c587;
      }

      .st1 {
        fill: #331e18;
      }

      .st4 {
        fill: #321d1f;
      }

      .st5 {
        fill: #4e5b2f;
      }

      .st6 {
        fill: #ece5be;
      }
    </style>
  </defs>
  <polygon class="st4" points="743.43 669.21 726.76 793.72 547.47 792.36 373.86 791 371.14 791 196.05 789.64 56.57 788.62 56.57 661.5 88.32 661.84 181.99 662.86 376.92 665.01 582.86 667.4 656.22 668.19 743.43 669.21"/>
  <path class="st0" d="M179.5,659.34s-.79-1.02-1.13-1.47"/>
  <path class="st0" d="M179.5,659.34"/>
  <path class="st0" d="M188.8,670.68"/>
  <path class="st0" d="M348.35,781.36"/>
  <path class="st0" d="M360.71,786.24"/>
  <path class="st0" d="M364.9,787.82"/>
  <path class="st0" d="M373.86,791"/>
  <path class="st0" d="M626.97,550.59c-8.85,40.82-35.49,73.37-90.04,84.6-74.96,15.42-209.9-6.35-226.12-78.36-20.64-91.29,21.21-133.13,61.24-80.4,14.29,18.71,28.01,43.2,44.68,49.56,177.7,69.06,48.53-96.05-39.12-124.51-126.44-40.94-219.77,187.11-.68,263.54l-195.05-3.06c-7.94-10.32-18.6-25.17-25.17-36.4-72.12-124.85-12.02-297.22,134.15-327.38,103.19-21.32,174.18,3.52,270.23,93.67,41.73,39.24,76.54,109.88,65.88,158.76Z"/>
  <g>
    <path class="st6" d="M711.79,478.02s3.06,130.52-60.44,190.17l22.45-173.73,37.99-16.44Z"/>
    <path class="st6" d="M711.79,521.79l-651.81-2.72C47.95,240,186.64,103.24,384.63,97.91c186.54-4.99,332.14,140.39,327.15,423.88Z"/>
  </g>
  <path class="st1" d="M628.89,528.37v1.81c0,3.06-.11,6.12-.34,9.19,0,.68,0,1.25-.11,1.93-2.61,45.93-19.05,89.58-45.59,126.1l-205.93-2.38-194.93-2.15c-33.11-39.12-55.68-86.07-62.26-134.49-17.69-129.84,77.79-237.23,218.29-237.23,2.38,0,4.65,0,7.03.23,37.88.79,76.09,9.3,111.81,23.7l.68.34c94.91,38.67,171.35,119.41,171.35,212.96Z"/>
  <path class="st3" d="M687.86,530.64c0,49.33-11.34,96.05-31.64,137.55l-73.37-.79-205.93-2.38c-219.09-76.43-125.76-304.47.68-263.54,87.66,28.46,216.82,193.57,39.12,124.51-16.67-6.35-30.39-30.84-44.68-49.56-40.03-52.73-81.87-10.89-61.24,80.4,16.22,72.01,151.16,93.78,226.12,78.36,54.54-11.23,81.19-43.77,90.04-84.6.68-2.95,1.13-6.12,1.47-9.3.11-.68.11-1.25.11-1.93.34-2.95.34-6.01.34-9.19-.57-46.61-31.64-104.33-67.81-138.35-37.19-34.81-70.53-59.99-103.53-76.43l-.68-.34c-36.29-17.92-72.12-25.4-111.81-23.7-17.24.45-35.15,2.83-54.2,6.8-146.17,30.16-206.27,202.53-134.15,327.38,6.58,11.23,17.35,26.99,25.29,37.31l194.93,2.15-194.93-2.15-93.67-1.02c-18.48-39.92-28.69-84.37-28.69-131.2,0-173.5,140.61-314.11,314.11-314.11s314.11,140.61,314.11,314.11h0Z"/>
  <path class="st0" d="M711.79,510.45"/>
  <path class="st0" d="M202.97,502.29"/>
  <path class="st2" d="M235.63,6.28c-17.92-.23-34.13,11.79-38.1,29.14-3.52,15.31-4.99,38.56-.79,73.71,0,0,6.69,65.32,66.79,79.15,6.69,1.59,13.72,1.36,20.3-.68,7.71-2.38,19.73-6.92,34.81-15.54,27.9-15.76,59.08-57.72,59.08-57.72,0,0,7.14-14.52,7.71-26.31,1.02-19.28-1.59-79.72-149.8-81.65v-.11Z"/>
  <path class="st5" d="M372.16,94.62l37.19-12.25-14.74,24.38s29.48,3.18,32.09,12.81c2.61,9.64-45.59,36.63-45.59,36.63,0,0,40.48,17.92,87.32,0,46.83-17.92,66.11-22.45,66.11-22.45,0,0,15.42.68,28.92,7.03,13.49,6.35,18.94,33.68,8.39,37.88-10.55,4.2-18.6-3.18-18.6-3.18,0,0,6.12-9.3-10.89-22.45,0,0-77,29.14-91.17,26.99-14.17-2.15-71.21-1.59-78.93-10.89-7.71-9.3-29.48,17.35-29.48,17.35l-12.25-12.81-24.38,21.21-15.42-6.46-19.28,28.24-12.81-16.67,10.32-20.53,18.6-7.71,36.63-12.25-7.03-9.98,23.13-5.44,7.03-18.6,18.6,4.54-1.25-30.84,7.71-4.54h-.23Z"/>
</svg>