<?xml version="1.0" encoding="UTF-8"?>
<svg id="_레이어_1" data-name="레이어_1" xmlns="http://www.w3.org/2000/svg" version="1.1" viewBox="0 0 800 800">
  <!-- Generator: Adobe Illustrator 29.5.1, SVG Export Plug-In . SVG Version: 2.1.0 Build 141)  -->
  <defs>
    <style>
      .st0 {
        fill: #970b0e;
      }

      .st1 {
        fill: none;
        stroke: #000;
        stroke-miterlimit: 10;
      }

      .st2 {
        fill: #3d281f;
      }

      .st3 {
        fill: #d6b3ba;
      }

      .st4 {
        fill: #583e30;
      }

      .st5 {
        fill: #646141;
      }

      .st6 {
        fill: #321d1f;
      }
    </style>
  </defs>
  <polygon class="st6" points="737.48 664.55 721.1 786.91 544.92 785.57 374.31 784.23 371.64 784.23 199.58 782.89 62.52 781.89 62.52 656.97 93.72 657.31 185.77 658.31 377.32 660.43 579.69 662.77 651.79 663.55 737.48 664.55"/>
  <path class="st1" d="M183.31,654.74s-.78-1-1.11-1.45"/>
  <path class="st1" d="M183.31,654.74"/>
  <path class="st1" d="M192.56,665.89"/>
  <path class="st1" d="M349.24,774.65"/>
  <path class="st1" d="M361.5,779.55"/>
  <path class="st1" d="M365.62,781"/>
  <path class="st1" d="M374.31,784.23"/>
  <path class="st1" d="M623.04,547.99c-8.69,40.12-34.88,72.1-88.48,83.13-73.66,15.16-206.27-6.24-222.2-77-20.28-89.71,20.84-130.83,60.18-79.01,14.04,18.39,27.52,42.46,43.91,48.7,174.62,67.86,47.69-94.39-38.45-122.36-124.25-40.23-215.96,183.87-.67,258.98l-191.67-3.01c-7.8-10.14-18.28-24.74-24.74-35.77-70.87-122.69-11.81-292.07,131.83-321.71,101.41-20.95,171.16,3.45,265.55,92.05,41.01,38.56,75.22,107.98,64.74,156.01Z"/>
  <g>
    <path class="st4" d="M706.39,476.56s3.01,128.26-59.4,186.88l22.06-170.72,37.33-16.16Z"/>
    <path class="st4" d="M706.39,519.68l-640.53-2.67C54.05,242.77,190.33,108.38,384.9,103.14c183.31-4.9,326.39,137.96,321.49,416.55Z"/>
  </g>
  <path class="st3" d="M624.93,526.15v1.78c0,3.01-.11,6.02-.33,9.03,0,.67,0,1.23-.11,1.89-2.56,45.13-18.72,88.03-44.8,123.92l-202.37-2.34-191.56-2.12c-32.54-38.45-54.71-84.58-61.18-132.16-17.38-127.59,76.44-233.12,214.51-233.12,2.34,0,4.57,0,6.91.22,37.22.78,74.77,9.14,109.88,23.29.22.11.45.22.67.33,93.27,38,168.38,117.34,168.38,209.28Z"/>
  <path class="st2" d="M682.88,528.38c0,48.47-11.14,94.39-31.09,135.17l-72.1-.78-202.37-2.34c-215.29-75.11-123.58-299.2.67-258.98,86.14,27.97,213.06,190.22,38.45,122.36-16.38-6.24-29.86-30.31-43.91-48.7-39.34-51.82-80.46-10.7-60.18,79.01,15.94,70.76,148.54,92.16,222.2,77,53.6-11.03,79.79-43.01,88.48-83.13.67-2.9,1.11-6.02,1.45-9.14.11-.67.11-1.23.11-1.89.33-2.9.33-5.91.33-9.03-.56-45.8-31.09-102.52-66.64-135.95-36.55-34.21-69.31-58.95-101.74-75.11-.22-.11-.45-.22-.67-.33-35.66-17.61-70.87-24.96-109.88-23.29-16.94.45-34.54,2.79-53.27,6.69-143.64,29.64-202.7,199.02-131.83,321.71,6.46,11.03,17.05,26.52,24.85,36.66l191.56,2.12-191.56-2.12-92.05-1c-18.16-39.23-28.19-82.91-28.19-128.93,0-170.5,138.18-308.68,308.68-308.68s308.68,138.18,308.68,308.68h0Z"/>
  <path class="st1" d="M706.39,508.54"/>
  <path class="st1" d="M206.49,500.4"/>
  <path class="st0" d="M238.47,13.1c-17.61-.22-33.54,11.59-37.44,28.64-3.45,15.04-4.9,37.89-.78,72.43,0,0,6.57,64.19,65.64,77.78,6.57,1.56,13.48,1.34,19.95-.67,7.58-2.34,19.39-6.8,34.21-15.27,27.41-15.49,58.06-56.72,58.06-56.72,0,0,7.02-14.26,7.58-25.85,1-18.94-1.56-78.34-147.21-80.23v-.11Z"/>
  <path class="st5" d="M372.75,99.79l36.55-12.04-14.49,23.96s28.97,3.12,31.54,12.59c2.56,9.47-44.8,35.99-44.8,35.99,0,0,39.78,17.61,85.81,0,46.02-17.61,64.97-22.06,64.97-22.06,0,0,15.16.67,28.42,6.91,13.26,6.24,18.61,33.1,8.25,37.22-10.36,4.12-18.28-3.12-18.28-3.12,0,0,6.02-9.14-10.7-22.06,0,0-75.66,28.64-89.59,26.52-13.93-2.12-69.98-1.56-77.56-10.7-7.58-9.14-28.97,17.05-28.97,17.05l-12.04-12.59-23.96,20.84-15.16-6.35-18.94,27.75-12.59-16.38,10.14-20.17,18.28-7.58,35.99-12.04-6.91-9.81,22.73-5.35,6.91-18.28,18.28,4.46-1.23-30.31,7.58-4.46h-.22Z"/>
</svg>