<?xml version="1.0" encoding="UTF-8"?>
<svg id="_레이어_1" data-name="레이어_1" xmlns="http://www.w3.org/2000/svg" version="1.1" viewBox="0 0 800 800">
  <!-- Generator: Adobe Illustrator 29.5.1, SVG Export Plug-In . SVG Version: 2.1.0 Build 141)  -->
  <defs>
    <style>
      .st0 {
        fill: none;
        stroke: #000;
        stroke-miterlimit: 10;
      }

      .st1 {
        fill: #b0b958;
      }

      .st2 {
        fill: #667013;
      }

      .st3 {
        fill: #d83309;
      }

      .st4 {
        fill: #321d1f;
      }

      .st5 {
        fill: #88a443;
      }

      .st6 {
        fill: #d3cc8d;
      }
    </style>
  </defs>
  <polygon class="st4" points="734.88 662.51 718.63 783.93 543.81 782.6 374.51 781.27 371.86 781.27 201.13 779.95 65.12 778.95 65.12 654.99 96.08 655.33 187.41 656.32 377.5 658.42 578.31 660.74 649.85 661.52 734.88 662.51"/>
  <path class="st0" d="M194.16,663.95"/>
  <path class="st0" d="M349.74,771.87"/>
  <path class="st0" d="M361.8,776.63"/>
  <path class="st0" d="M365.89,778.18"/>
  <path class="st0" d="M374.51,781.27"/>
  <path class="st0" d="M621.32,546.85c-8.63,39.81-34.61,71.54-87.8,82.49-73.09,15.04-204.68-6.19-220.49-76.41-20.13-89.02,20.68-129.82,59.71-78.4,13.93,18.25,27.31,42.13,43.57,48.32,173.28,67.34,47.33-93.66-38.15-121.41-123.29-39.92-214.3,182.45-.66,256.98l-190.19-2.99c-7.74-10.06-18.13-24.55-24.55-35.5-70.33-121.75-11.72-289.82,130.81-319.24,100.63-20.79,169.85,3.43,263.51,91.34,40.69,38.26,74.64,107.15,64.25,154.81Z"/>
  <g>
    <path class="st1" d="M704.03,476.08s2.99,127.27-58.94,185.44l21.89-169.41,37.04-16.03Z"/>
    <path class="st1" d="M704.03,518.76l-635.6-2.65C56.71,243.98,191.95,110.62,385.02,105.42c181.9-4.87,323.88,136.9,319.02,413.34Z"/>
  </g>
  <path class="st6" d="M623.2,525.18v1.77c0,2.99-.11,5.97-.33,8.96,0,.66,0,1.22-.11,1.88-2.54,44.78-18.58,87.36-44.45,122.96l-200.81-2.32-190.08-2.1c-32.29-38.15-54.29-83.93-60.71-131.15-17.25-126.61,75.86-231.33,212.86-231.33,2.32,0,4.53,0,6.86.22,36.93.77,74.2,9.07,109.03,23.11.22.11.44.22.66.33,92.55,37.71,167.08,116.44,167.08,207.67Z"/>
  <path class="st2" d="M680.7,527.39c0,48.1-11.06,93.66-30.85,134.13l-71.54-.77-200.81-2.32c-213.64-74.53-122.63-296.9.66-256.98,85.48,27.75,211.42,188.76,38.15,121.41-16.25-6.19-29.63-30.08-43.57-48.32-39.03-51.42-79.84-10.62-59.71,78.4,15.81,70.22,147.4,91.45,220.49,76.41,53.19-10.95,79.17-42.68,87.8-82.49.66-2.88,1.11-5.97,1.44-9.07.11-.66.11-1.22.11-1.88.33-2.88.33-5.86.33-8.96-.55-45.45-30.85-101.73-66.13-134.9-36.27-33.95-68.78-58.5-100.96-74.53-.22-.11-.44-.22-.66-.33-35.38-17.47-70.33-24.77-109.03-23.11-16.81.44-34.28,2.76-52.86,6.63-142.53,29.41-201.14,197.49-130.81,319.24,6.41,10.95,16.92,26.32,24.66,36.38l190.08,2.1-190.08-2.1-91.34-1c-18.02-38.92-27.98-82.27-27.98-127.94,0-169.18,137.12-306.3,306.3-306.3s306.3,137.12,306.3,306.3h0Z"/>
  <path class="st0" d="M704.03,507.7"/>
  <path class="st0" d="M207.98,499.74"/>
  <path class="st3" d="M239.83,16.08c-17.47-.22-33.28,11.5-37.15,28.42-3.43,14.93-4.87,37.6-.77,71.88,0,0,6.52,63.69,65.13,77.18,6.52,1.55,13.38,1.33,19.79-.66,7.52-2.32,19.24-6.75,33.95-15.15,27.2-15.37,57.61-56.28,57.61-56.28,0,0,6.97-14.15,7.52-25.65,1-18.8-1.55-77.74-146.07-79.62v-.11Z"/>
  <path class="st5" d="M372.96,102.11l36.27-11.94-14.38,23.77s28.75,3.1,31.29,12.5-44.45,35.72-44.45,35.72c0,0,39.48,17.47,85.14,0,45.67-17.47,64.47-21.89,64.47-21.89,0,0,15.04.66,28.2,6.86,13.16,6.19,18.47,32.84,8.18,36.93-10.28,4.09-18.13-3.1-18.13-3.1,0,0,5.97-9.07-10.62-21.89,0,0-75.08,28.42-88.9,26.32-13.82-2.1-69.44-1.55-76.96-10.62-7.52-9.07-28.75,16.92-28.75,16.92l-11.94-12.5-23.77,20.68-15.04-6.3-18.8,27.53-12.5-16.25,10.06-20.01,18.13-7.52,35.72-11.94-6.86-9.73,22.56-5.31,6.86-18.13,18.13,4.42-1.22-30.08,7.52-4.42h-.22Z"/>
</svg>