<?xml version="1.0" encoding="UTF-8"?>
<svg id="_레이어_1" data-name="레이어_1" xmlns="http://www.w3.org/2000/svg" version="1.1" viewBox="0 0 800 800">
  <!-- Generator: Adobe Illustrator 29.5.1, SVG Export Plug-In . SVG Version: 2.1.0 Build 141)  -->
  <defs>
    <style>
      .st0 {
        fill: #b5a8a1;
      }

      .st1 {
        fill: none;
        stroke: #cc0904;
        stroke-miterlimit: 10;
      }
    </style>
  </defs>
  <path class="st1" d="M329.02,58.34s-.07.34-.19.99"/>
  <path class="st0" d="M773.11,644.94l-24.74,49.48s-85.32,5.58-135.43-124.99l5.75-195.53s-65,44.57-115.16,55.68l-67.67-39.59-.04-.02s5.41-127.26,27.87-197.97c-32.82-35.85-102.3-55.83-102.3-55.83l-7.18,66.54c-17.3,27.59-43.4,48.21-71.46,67.3,0,0-.01,0-.02,0-2.24,1.65-4.6,3.29-7.09,4.91h-95.06s59.25,76.74,59.9,95.29l-31.25,66.83s-175.17,7.43-182.34,42.09v-53.2s22.78-34.04,152.39-32.18c0,0-27.99-31.56-48.2-89.09l36.47-63.11s11.73-22.89,27.34-17.31l121.29,3.82s.02-.05.03-.07c12.66-36.88-12.54-68.91-12.54-68.91l.19-.07c-48.4,13.88-133.85,36.44-167.07,32.98V44.71h.04s58.38-31.44,192,14.62c.24.08.49.17.73.25l25.54-5.98c8.59-2,17.52-2.22,26.23-.65l35.16,6.34,1.61.29s40.38-47.55,200.55-25.33v147.84s.03.02.04.03c-36.36,23.99-143.81-14.4-145.09-14.85,52.69,89.63,22.92,193.96,22.13,196.7,1.3-.9,73.18-50.57,101.56-35.87,28.65,14.83,74.24,42.09,74.24,42.09,0,0,22.78,54.44,0,238.85,0,0-3.26,17.31,101.58,35.9Z"/>
  <path class="st0" d="M464.38,189.85c-.23.71-.46,1.42-.69,2.15"/>
  <path class="st0" d="M282.73,270.02c-2.21,1.5-4.43,2.99-6.66,4.48"/>
  <path class="st0" d="M416.49,59.29c-.15-.62-.23-.95-.23-.95"/>
  <line class="st1" x1="435.86" y1="389.99" x2="435.82" y2="390.01"/>
</svg>