<?xml version="1.0" encoding="UTF-8"?>
<svg id="_레이어_1" data-name="레이어_1" xmlns="http://www.w3.org/2000/svg" version="1.1" viewBox="0 0 800 800">
  <!-- Generator: Adobe Illustrator 29.5.1, SVG Export Plug-In . SVG Version: 2.1.0 Build 141)  -->
  <defs>
    <style>
      .st0 {
        fill: none;
        stroke: #000;
        stroke-miterlimit: 10;
      }

      .st1 {
        fill: #31211b;
      }

      .st2 {
        fill: #3d622a;
      }

      .st3 {
        fill: #7a0009;
      }

      .st4 {
        fill: #d4b4bb;
      }

      .st5 {
        fill: #e5d2d9;
      }

      .st6 {
        fill: #321d1f;
      }
    </style>
  </defs>
  <polygon class="st6" points="739.26 665.94 722.79 788.95 545.69 787.6 374.18 786.26 371.49 786.26 198.53 784.91 60.74 783.9 60.74 658.33 92.1 658.66 184.64 659.67 377.2 661.8 580.64 664.15 653.12 664.94 739.26 665.94"/>
  <path class="st0" d="M182.17,656.09s-.78-1.01-1.12-1.46"/>
  <path class="st0" d="M182.17,656.09"/>
  <path class="st0" d="M191.36,667.4"/>
  <path class="st0" d="M348.97,776.74"/>
  <path class="st0" d="M361.18,781.55"/>
  <path class="st0" d="M365.33,783.12"/>
  <path class="st0" d="M374.18,786.26"/>
  <path class="st0" d="M624.21,548.77c-8.74,40.33-35.06,72.48-88.95,83.57-74.05,15.24-207.35-6.27-223.37-77.41-20.39-90.18,20.95-131.52,60.49-79.42,14.11,18.48,27.67,42.68,44.14,48.95,175.54,68.22,47.95-94.88-38.65-123-124.91-40.44-217.1,184.84-.67,260.34l-192.68-3.02c-7.84-10.19-18.37-24.87-24.87-35.96-71.25-123.34-11.87-293.61,132.52-323.41,101.94-21.06,172.07,3.47,266.95,92.53,41.22,38.76,75.62,108.55,65.09,156.83Z"/>
  <g>
    <path class="st5" d="M708.01,477.07s3.02,128.94-59.71,187.86l22.18-171.62,37.53-16.24Z"/>
    <path class="st5" d="M708.01,520.31l-643.91-2.69C52.22,241.94,189.23,106.84,384.82,101.57c184.28-4.93,328.12,138.68,323.19,418.74Z"/>
  </g>
  <path class="st1" d="M626.12,526.81v1.79c0,3.02-.11,6.05-.34,9.07,0,.67,0,1.23-.11,1.9-2.58,45.37-18.82,88.5-45.03,124.57l-203.43-2.35-192.57-2.13c-32.71-38.65-55-85.03-61.5-132.86-17.48-128.27,76.85-234.35,215.64-234.35,2.35,0,4.59,0,6.95.22,37.42.78,75.17,9.19,110.45,23.41l.67.34c93.76,38.2,169.27,117.96,169.27,210.38Z"/>
  <path class="st4" d="M684.37,529.05c0,48.73-11.2,94.88-31.25,135.88l-72.48-.78-203.43-2.35c-216.43-75.5-124.23-300.78.67-260.34,86.59,28.12,214.19,191.22,38.65,123-16.47-6.27-30.02-30.47-44.14-48.95-39.54-52.09-80.88-10.75-60.49,79.42,16.02,71.13,149.33,92.64,223.37,77.41,53.88-11.09,80.21-43.24,88.95-83.57.67-2.91,1.12-6.05,1.46-9.19.11-.67.11-1.23.11-1.9.34-2.91.34-5.94.34-9.07-.56-46.04-31.25-103.06-66.99-136.67-36.74-34.39-69.68-59.26-102.28-75.5l-.67-.34c-35.85-17.7-71.25-25.09-110.45-23.41-17.03.45-34.73,2.8-53.55,6.72-144.4,29.8-203.77,200.07-132.52,323.41,6.5,11.09,17.14,26.66,24.98,36.86l192.57,2.13-192.57-2.13-92.53-1.01c-18.26-39.43-28.34-83.35-28.34-129.61,0-171.4,138.91-310.3,310.3-310.3s310.3,138.91,310.3,310.3h0Z"/>
  <path class="st0" d="M708.01,509.11"/>
  <path class="st0" d="M205.36,501.05"/>
  <path class="st3" d="M237.62,11.06c-17.7-.22-33.72,11.65-37.64,28.79-3.47,15.12-4.93,38.09-.78,72.82,0,0,6.61,64.53,65.98,78.19,6.61,1.57,13.55,1.34,20.05-.67,7.62-2.35,19.49-6.83,34.39-15.35,27.56-15.57,58.36-57.02,58.36-57.02,0,0,7.06-14.34,7.62-25.99,1.01-19.04-1.57-78.75-147.98-80.66v-.11Z"/>
  <path class="st2" d="M372.5,98.21l36.74-12.1-14.56,24.08s29.13,3.14,31.7,12.66c2.58,9.52-45.03,36.18-45.03,36.18,0,0,39.99,17.7,86.26,0s65.31-22.18,65.31-22.18c0,0,15.24.67,28.57,6.95,13.33,6.27,18.71,33.27,8.29,37.42s-18.37-3.14-18.37-3.14c0,0,6.05-9.19-10.75-22.18,0,0-76.06,28.79-90.07,26.66-14-2.13-70.35-1.57-77.97-10.75s-29.13,17.14-29.13,17.14l-12.1-12.66-24.09,20.95-15.24-6.39-19.04,27.89-12.66-16.47,10.19-20.28,18.37-7.62,36.18-12.1-6.95-9.86,22.85-5.38,6.95-18.37,18.37,4.48-1.23-30.47,7.62-4.48h-.22Z"/>
</svg>