<?xml version="1.0" encoding="UTF-8"?>
<svg id="_레이어_1" data-name="레이어_1" xmlns="http://www.w3.org/2000/svg" version="1.1" viewBox="0 0 400 400">
  <!-- Generator: Adobe Illustrator 29.6.1, SVG Export Plug-In . SVG Version: 2.1.1 Build 9)  -->
  <defs>
    <style>
      .st0 {
        fill: none;
        stroke: #000;
        stroke-miterlimit: 10;
        stroke-width: 17px;
      }
    </style>
  </defs>
  <rect class="st0" x="29.5" y="29.5" width="341" height="341" rx="43.07" ry="43.07"/>
  <path class="st0" d="M309.5,192.67v51.45c0,37.61-30.77,68.38-68.38,68.38h-84.24c-37.61,0-68.38-30.77-68.38-68.38v-51.45c0-.37.02-.74.05-1.1-.03-.33-.05-.67-.05-1.01v-33.56c0-36.02,29.48-65.5,65.5-65.5h47c36.02,0,65.5,29.48,65.5,65.5,0,0-.02.29,0,.81.16,3.85,2.52,20.05,30.83,22.69,6.7,0,12.17,5.47,12.17,12.17Z"/>
  <path class="st0" d="M266.5,157v.81c-.02-.52,0-.81,0-.81Z"/>
  <ellipse class="st0" cx="178" cy="159.37" rx="36.5" ry="16.87"/>
  <ellipse class="st0" cx="196.5" cy="243.09" rx="59" ry="18.51"/>
</svg>