<?xml version="1.0" encoding="UTF-8"?>
<svg id="_레이어_1" data-name="레이어_1" xmlns="http://www.w3.org/2000/svg" version="1.1" viewBox="0 0 400 400">
  <!-- Generator: Adobe Illustrator 29.6.1, SVG Export Plug-In . SVG Version: 2.1.1 Build 9)  -->
  <defs>
    <style>
      .st0, .st1, .st2 {
        fill: none;
        stroke: #000;
        stroke-miterlimit: 10;
      }

      .st1 {
        stroke-width: 35px;
      }

      .st2 {
        stroke-width: 30px;
      }
    </style>
  </defs>
  <path class="st0" d="M-20.74-9"/>
  <path class="st1" d="M25.97,149.15c-.03.11-.04.22-.06.32-.39-2.32-.35-4.65.06-6.81.96-5.22,4.01-9.56,8.27-10.99l186.45-62.59,26.94,29.91c6.6,7.33,16.59,3.97,19.28-6.47l10.99-42.64,48.89-16.4c6.3-2.11,12.91,2.91,14.73,11.17l19.03,86.57,1.47,6.67"/>
  <path d="M363.5,164.44v168h-21.88l-14.05-20.47c-9.28-13.51-24.6-21.58-40.99-21.58s-31.72,8.08-40.98,21.58l-14.05,20.47H36.5v-168h195.64l8.91,12.99,4.54,6.61c9.28,13.51,24.6,21.58,40.99,21.58s31.71-8.07,40.99-21.58l13.44-19.59h22.49M384.11,129.44h-61.53l-23.87,34.78c-2.92,4.26-7.53,6.39-12.13,6.39s-9.21-2.13-12.14-6.39l-4.54-6.61-19.33-28.17H15.89c-6.61,0-12.21,4.51-13.87,10.6-.03.1-.05.2-.07.3-.3,1.12-.45,2.29-.45,3.49v209.22c0,7.92,6.47,14.39,14.39,14.39h234.08l24.48-35.66c2.92-4.26,7.52-6.39,12.13-6.39s9.21,2.13,12.13,6.39l24.48,35.66h60.92c7.92,0,14.39-6.47,14.39-14.39v-209.22c0-7.17-5.29-13.14-12.16-14.21-.55-.09-1.11-.15-1.68-.17-.18,0-.37,0-.55,0h0Z"/>
  <line class="st1" x1="52.5" y1="192.94" x2="185.5" y2="192.94"/>
  <line class="st1" x1="52.5" y1="235.94" x2="120.5" y2="235.94"/>
  <line class="st2" x1="272.5" y1="223.94" x2="302.5" y2="223.94"/>
  <line class="st2" x1="272" y1="268.44" x2="302" y2="268.44"/>
</svg>