<?xml version="1.0" encoding="UTF-8"?>
<svg id="_레이어_1" data-name="레이어_1" xmlns="http://www.w3.org/2000/svg" version="1.1" viewBox="0 0 400 400">
  <!-- Generator: Adobe Illustrator 29.6.1, SVG Export Plug-In . SVG Version: 2.1.1 Build 9)  -->
  <path d="M341.51,357.38c-5.79,0-11.34-2.15-15.64-6.04l-102.76-93.09-.33.23c-20.26,14.48-44.17,22.14-69.14,22.14-65.62,0-119-53.38-119-119s53.38-119,119-119,119,53.38,119,119c0,21.29-5.69,42.17-16.45,60.4l-.21.35,101.04,91.53c5.02,4.55,7.97,10.78,8.3,17.54.33,6.76-1.99,13.25-6.53,18.27-4.41,4.87-10.71,7.67-17.28,7.67ZM153.64,92.46c-38.13,0-69.16,31.02-69.16,69.16s31.02,69.16,69.16,69.16,69.16-31.02,69.16-69.16-31.03-69.16-69.16-69.16Z"/>
  <path d="M153.64,43.12c31.65,0,61.41,12.33,83.79,34.71,22.38,22.38,34.71,52.14,34.71,83.79,0,21.2-5.66,41.99-16.38,60.14l-.41.7.6.55,100.74,91.26c10.16,9.21,10.93,24.96,1.73,35.11-4.32,4.77-10.48,7.5-16.91,7.5-5.66,0-11.1-2.1-15.31-5.91l-102.46-92.82-.6-.54-.66.47c-20.17,14.42-43.98,22.04-68.85,22.04-31.65,0-61.41-12.33-83.79-34.71-22.38-22.38-34.71-52.14-34.71-83.79s12.33-61.41,34.71-83.79c22.38-22.38,52.14-34.71,83.79-34.71M153.64,231.28c38.41,0,69.66-31.25,69.66-69.66s-31.25-69.66-69.66-69.66-69.66,31.25-69.66,69.66,31.25,69.66,69.66,69.66M153.64,42.12c-66,0-119.5,53.5-119.5,119.5s53.5,119.5,119.5,119.5c25.89,0,49.86-8.24,69.43-22.23l102.46,92.82c4.56,4.13,10.28,6.17,15.98,6.17,6.49,0,12.95-2.64,17.65-7.83,9.59-10.58,8.78-26.93-1.8-36.52l-100.74-91.26c10.5-17.78,16.52-38.51,16.52-60.65,0-66-53.5-119.5-119.5-119.5h0ZM153.64,230.28c-37.92,0-68.66-30.74-68.66-68.66s30.74-68.66,68.66-68.66,68.66,30.74,68.66,68.66-30.74,68.66-68.66,68.66h0Z"/>
</svg>