<?xml version="1.0" encoding="UTF-8"?>
<svg id="_레이어_1" data-name="레이어_1" xmlns="http://www.w3.org/2000/svg" version="1.1" viewBox="0 0 400 400">
  <!-- Generator: Adobe Illustrator 29.6.1, SVG Export Plug-In . SVG Version: 2.1.1 Build 9)  -->
  <defs>
    <style>
      .st0 {
        fill: #8e24aa;
      }

      .st1 {
        fill: #304ffe;
      }

      .st2 {
        fill: #ffc107;
      }

      .st3 {
        fill: #f50057;
      }

      .st4 {
        fill: #fff;
      }

      .st5 {
        fill: #4928f4;
      }

      .st6 {
        fill: #ff1744;
      }

      .st7 {
        fill: #d81b60;
      }

      .st8 {
        fill: #ff9800;
      }

      .st9 {
        fill: #ff5722;
      }

      .st10 {
        fill: #ffecb3;
      }

      .st11 {
        fill: #ff6f00;
      }

      .st12 {
        fill: #ffe082;
      }

      .st13 {
        fill: #c2185b;
      }

      .st14 {
        fill: #ffd54f;
      }

      .st15 {
        fill: #6200ea;
      }

      .st16 {
        fill: none;
        stroke: #fff;
        stroke-miterlimit: 10;
        stroke-width: 30px;
      }
    </style>
  </defs>
  <g>
    <g>
      <path class="st1" d="M375.26,123.14v153.38c0,6.05-.55,11.97-1.61,17.72-2.38,12.93-7.31,25-14.26,35.66-4.92,7.57-10.86,14.42-17.61,20.36-6.5,5.73-13.75,10.61-21.58,14.47-6.5,3.22-13.41,5.74-20.62,7.45-6.67,1.59-13.6,2.49-20.71,2.63-.64.01-1.28.02-1.92.02H123.57c-6.2,0-12.27-.58-18.16-1.7-8.16-1.53-15.97-4.09-23.29-7.53-7.6-3.56-14.67-8.06-21.07-13.36-7.06-5.85-13.3-12.66-18.51-20.23-5.86-8.5-10.41-17.96-13.36-28.08-2.55-8.71-3.92-17.91-3.92-27.41V123.14c0-9.1,1.25-17.92,3.6-26.3,2.53-9.05,6.33-17.59,11.21-25.4,11.65-18.74,29.44-33.32,50.51-40.87,8.39-3.02,17.3-4.92,26.55-5.52,2.13-.15,4.28-.22,6.44-.22h153.38c40.71,0,75.85,25.08,90.72,60.55,4.41,10.49,7.04,21.9,7.5,33.83.06,1.3.09,2.61.09,3.93Z"/>
      <path class="st5" d="M375.26,123.14v153.38c0,6.05-.55,11.97-1.61,17.72-2.38,12.93-7.31,25-14.26,35.66-4.92,7.57-10.86,14.42-17.61,20.36-6.5,5.73-13.75,10.61-21.58,14.47-6.5,3.22-13.41,5.74-20.62,7.45-6.67,1.59-13.6,2.49-20.71,2.63-.64.01-1.28.02-1.92.02H123.57c-6.2,0-12.27-.58-18.16-1.7-8.16-1.53-15.97-4.09-23.29-7.53-7.6-3.56-14.67-8.06-21.07-13.36-7.06-5.85-13.3-12.66-18.51-20.23-5.86-8.5-10.41-17.96-13.36-28.08-2.55-8.71-3.92-17.91-3.92-27.41V123.14c0-9.1,1.25-17.92,3.6-26.3,2.53-9.05,6.33-17.59,11.21-25.4,11.65-18.74,29.44-33.32,50.51-40.87,8.72-2.2,17.57-4.04,26.55-5.52,2.13-.15,4.28-.22,6.44-.22h100.46c53.2,8.54,102.15,29.79,143.64,60.55,4.41,10.49,7.04,21.9,7.5,33.83.06,1.3.09,2.61.09,3.93Z"/>
      <path class="st15" d="M375.26,123.14v153.38c0,6.05-.55,11.97-1.61,17.72-2.38,12.93-7.31,25-14.26,35.66-4.92,7.57-10.86,14.42-17.61,20.36-6.5,5.73-13.75,10.61-21.58,14.47-6.5,3.22-13.41,5.74-20.62,7.45-6.67,1.59-13.6,2.49-20.71,2.63-.64.01-1.28.02-1.92.02H123.57c-6.2,0-12.27-.58-18.16-1.7-8.16-1.53-15.97-4.09-23.29-7.53-7.6-3.56-14.67-8.06-21.07-13.36-7.06-5.85-13.3-12.66-18.51-20.23-5.86-8.5-10.41-17.96-13.36-28.08-2.55-8.71-3.92-17.91-3.92-27.41V123.14c0-9.1,1.25-17.92,3.6-26.3,2.53-9.05,6.33-17.59,11.21-25.4,39.81-18.73,84.28-29.2,131.19-29.2,78.17,0,149.53,29.06,203.91,76.97.06,1.3.09,2.61.09,3.93Z"/>
      <path class="st0" d="M375.26,174.62v101.9c0,6.05-.55,11.97-1.61,17.72-2.38,12.93-7.31,25-14.26,35.66-4.92,7.57-10.86,14.42-17.61,20.36-6.5,5.73-13.75,10.61-21.58,14.47-6.5,3.22-13.41,5.74-20.62,7.45-6.67,1.59-13.6,2.49-20.71,2.63-.64.01-1.28.02-1.92.02H123.57c-6.2,0-12.27-.58-18.16-1.7-8.16-1.53-15.97-4.09-23.29-7.53-7.6-3.56-14.67-8.06-21.07-13.36-7.06-5.85-13.3-12.66-18.51-20.23-5.86-8.5-10.41-17.96-13.36-28.08-2.55-8.71-3.92-17.91-3.92-27.41V124.2c22.44-14.49,47.16-25.74,73.52-33.06,0-.02.01-.01.01-.01,23.06-6.43,47.36-9.86,72.47-9.86,56.94,0,109.75,17.65,153.26,47.78,18.79,13,35.84,28.33,50.74,45.57Z"/>
      <path class="st13" d="M375.26,206.98v69.54c0,6.05-.55,11.97-1.61,17.72-2.38,12.93-7.31,25-14.26,35.66-4.92,7.57-10.86,14.42-17.61,20.36-6.5,5.73-13.75,10.61-21.58,14.47-6.5,3.22-13.41,5.74-20.62,7.45-6.67,1.59-13.6,2.49-20.71,2.63-.64.01-1.28.02-1.92.02H123.57c-6.2,0-12.27-.58-18.16-1.7-8.16-1.53-15.97-4.09-23.29-7.53-7.6-3.56-14.67-8.06-21.07-13.36-7.06-5.85-13.3-12.66-18.51-20.23-5.86-8.5-10.41-17.96-13.36-28.08-2.55-8.71-3.92-17.91-3.92-27.41v-128.15c16.56-11.96,34.65-21.94,53.91-29.59,28.49-11.32,59.57-17.54,92.09-17.54s61.06,5.72,88.6,16.18c6.16,2.34,12.21,4.92,18.13,7.73,17.27,8.18,33.45,18.28,48.27,30.04,18.69,14.82,35.21,32.27,49,51.79Z"/>
      <path class="st7" d="M375.26,242.12v34.4c0,6.05-.55,11.97-1.61,17.72-2.38,12.93-7.31,25-14.26,35.66-4.92,7.57-10.86,14.42-17.61,20.36-6.5,5.73-13.75,10.61-21.58,14.47-6.5,3.22-13.41,5.74-20.62,7.45-6.67,1.59-13.6,2.49-20.71,2.63-.64.01-1.28.02-1.92.02H123.57c-6.2,0-12.27-.58-18.16-1.7-8.16-1.53-15.97-4.09-23.29-7.53-7.6-3.56-14.67-8.06-21.07-13.36-7.06-5.85-13.3-12.66-18.51-20.23-5.86-8.5-10.41-17.96-13.36-28.08-2.55-8.71-3.92-17.91-3.92-27.41v-104.85c14.92-12.18,31.4-22.53,49.09-30.7,29.47-13.64,62.3-21.25,96.91-21.25,59.64,0,114.01,22.59,155,59.69,19.73,17.84,36.36,39.05,49,62.71Z"/>
      <path class="st3" d="M373.65,294.24c-2.38,12.93-7.31,25-14.26,35.66-4.92,7.57-10.86,14.42-17.61,20.36-6.5,5.73-13.75,10.61-21.58,14.47-6.5,3.22-13.41,5.74-20.62,7.45-6.67,1.59-13.6,2.49-20.71,2.63-.64.01-1.28.02-1.92.02H123.57c-6.2,0-12.27-.58-18.16-1.7-8.16-1.53-15.97-4.09-23.29-7.53-7.6-3.56-14.67-8.06-21.07-13.36-7.06-5.85-13.3-12.66-18.51-20.23-5.86-8.5-10.41-17.96-13.36-28.08-2.55-8.71-3.92-17.91-3.92-27.41v-76.76c14.48-14.01,30.97-25.94,49-35.34,29.01-15.13,62.01-23.69,97-23.69,6.54,0,13.01.3,19.39.88,13.75,1.26,27.13,3.85,39.98,7.63,37.21,10.94,70.12,31.9,95.63,59.76,21.94,23.97,38.41,53.04,47.39,85.24Z"/>
      <path class="st6" d="M359.39,329.9c-4.92,7.57-10.86,14.42-17.61,20.36-6.5,5.73-13.75,10.61-21.58,14.47-6.5,3.22-13.41,5.74-20.62,7.45-6.67,1.59-13.6,2.49-20.71,2.63-.64.01-1.28.02-1.92.02H123.57c-6.2,0-12.27-.58-18.16-1.7-8.16-1.53-15.97-4.09-23.29-7.53-7.6-3.56-14.67-8.06-21.07-13.36-7.06-5.85-13.3-12.66-18.51-20.23-5.86-8.5-10.41-17.96-13.36-28.08-2.55-8.71-3.92-17.91-3.92-27.41v-46.16c13.77-16.67,30.35-30.94,49-42.09,23.92-14.31,51.26-23.48,80.5-26.01,5.44-.47,10.94-.71,16.5-.71,30.64,0,59.58,7.28,85.18,20.21,27.96,14.11,51.94,34.96,69.82,60.41,17.82,25.37,29.57,55.32,33.13,87.73Z"/>
      <path class="st9" d="M341.78,350.26c-6.5,5.73-13.75,10.61-21.58,14.47-6.5,3.22-13.41,5.74-20.62,7.45-6.67,1.59-13.6,2.49-20.71,2.63-.64.01-1.28.02-1.92.02H123.57c-6.2,0-12.27-.58-18.16-1.7-8.16-1.53-15.97-4.09-23.29-7.53-7.6-3.56-14.67-8.06-21.07-13.36-7.06-5.85-13.3-12.66-18.51-20.23-5.86-8.5-10.41-17.96-13.36-28.08-2.55-8.71-3.92-17.91-3.92-27.41v-13.84c12.49-20.64,29.23-38.42,49-52.12,20.41-14.14,44.05-23.93,69.59-28.06,8.92-1.44,18.08-2.19,27.41-2.19,32.12,0,62.16,8.88,87.81,24.31,27.54,16.58,50.01,40.72,64.55,69.54,11.54,22.89,18.07,48.73,18.16,76.1Z"/>
      <path class="st11" d="M320.35,350.83c0,4.69-.22,9.33-.64,13.9-6.5,3.22-13.41,5.74-20.62,7.45-6.67,1.59-13.6,2.49-20.71,2.63-.64.01-1.28.02-1.92.02H123.08c-6.2,0-12.27-.58-18.16-1.7-8.16-1.53-15.97-4.09-23.29-7.53-7.6-3.56-14.67-8.06-21.07-13.36-7.06-5.85-13.3-12.66-18.51-20.23-5.86-8.5-10.41-17.96-13.36-28.08,8.68-26.31,24.47-49.39,45.08-66.97,18.91-16.12,41.88-27.61,67.16-32.73,9.64-1.96,19.62-2.98,29.84-2.98,30.28,0,58.47,9,82.02,24.48,26.33,17.29,46.87,42.68,58.09,72.62,6.12,16.33,9.47,34.02,9.47,52.48Z"/>
      <path class="st8" d="M301.92,350.83c0,7.27-.6,14.4-1.75,21.35-6.67,1.59-13.6,2.49-20.71,2.63-.64.01-1.28.02-1.92.02H124.16c-6.2,0-12.27-.58-18.16-1.7-8.16-1.53-15.97-4.09-23.29-7.53-7.6-3.56-14.67-8.06-21.07-13.36-7.06-5.85-13.3-12.66-18.51-20.23,3.79-26.13,15.34-49.73,32.24-68.41,18.45-20.39,43.26-34.9,71.3-40.4,8.14-1.6,16.56-2.44,25.18-2.44,26.06,0,50.32,7.66,70.66,20.85,25.52,16.55,44.88,41.79,53.86,71.53,3.61,11.93,5.55,24.58,5.55,37.69Z"/>
      <path class="st2" d="M281.75,350.83c0,8.24-.9,16.26-2.62,23.98-.64.01-1.28.02-1.92.02H123.83c-6.2,0-12.27-.58-18.16-1.7-8.16-1.53-15.97-4.09-23.29-7.53-7.6-3.56-14.67-8.06-21.07-13.36-.02-.47-.02-.94-.02-1.41,0-23.99,7.66-46.19,20.68-64.28,17.63-24.54,45.1-41.52,76.64-45.19,4.23-.51,8.54-.76,12.91-.76,19.04,0,36.95,4.83,52.57,13.33,26.23,14.25,46.02,38.83,53.9,68.29,2.46,9.12,3.76,18.71,3.76,28.61Z"/>
      <path class="st14" d="M261.99,350.8c0,8.32-1.12,16.38-3.23,24.03H123.77c-6.21,0-12.29-.58-18.18-1.7-8.17-1.53-15.99-4.1-23.32-7.54-.8-4.81-1.21-9.75-1.21-14.79,0-17.18,4.79-33.25,13.11-46.93,15.87-26.1,44.58-43.54,77.36-43.54,41.26,0,76.07,27.63,86.95,65.39,2.29,7.97,3.52,16.38,3.52,25.08Z"/>
    </g>
    <path class="st12" d="M241.12,350.8c0,8.45-1.5,16.54-4.27,24.03h-113.08c-6.21,0-12.29-.58-18.18-1.7-2.36-7.01-3.65-14.52-3.65-22.33,0-12.37,3.22-23.97,8.88-34.04,11.93-21.22,34.65-35.56,60.71-35.56,29.61,0,54.89,18.49,64.95,44.56,3,7.77,4.65,16.21,4.65,25.03Z"/>
    <path class="st10" d="M221.59,350.8c0,8.7-2.22,16.89-6.15,24.03h-87.84c-3.93-7.14-6.15-15.33-6.15-24.03,0-9.88,2.87-19.11,7.82-26.87,8.89-13.95,24.49-23.2,42.25-23.2s34.71,10.06,43.36,25.03c4.27,7.36,6.71,15.91,6.71,25.03Z"/>
  </g>
  <rect class="st16" x="74.26" y="73.83" width="252" height="252" rx="70.78" ry="70.78"/>
  <circle class="st16" cx="200.26" cy="199.83" r="59"/>
  <circle class="st4" cx="268.26" cy="122.83" r="10"/>
</svg>