<?xml version="1.0" encoding="UTF-8"?>
<svg id="_레이어_1" data-name="레이어_1" xmlns="http://www.w3.org/2000/svg" version="1.1" viewBox="0 0 400 400">
  <!-- Generator: Adobe Illustrator 29.6.1, SVG Export Plug-In . SVG Version: 2.1.1 Build 9)  -->
  <defs>
    <style>
      .st0 {
        fill: none;
        stroke: #000;
        stroke-linecap: round;
        stroke-miterlimit: 10;
        stroke-width: 35px;
      }
    </style>
  </defs>
  <path d="M208.5,144.25v16h64v24h-64v16h63.96c-1.33,38.74-33.42,70-72.46,70s-72.5-32.62-72.5-72.5v-89c0-39.88,32.62-72.5,72.5-72.5,19.94,0,38.06,8.16,51.2,21.3,12.14,12.14,20.04,28.54,21.16,46.7h-63.86v16h64v24h-64Z"/>
  <path class="st0" d="M313.86,185.75c-.19,62.72-51.1,113.5-113.86,113.5s-113.67-50.78-113.86-113.5"/>
  <line class="st0" x1="200" y1="299.75" x2="200" y2="363.75"/>
  <line class="st0" x1="127" y1="363.75" x2="279" y2="363.75"/>
</svg>