<?xml version="1.0" encoding="UTF-8"?>
<svg id="_레이어_1" data-name="레이어_1" xmlns="http://www.w3.org/2000/svg" version="1.1" viewBox="0 0 400 400">
  <!-- Generator: Adobe Illustrator 29.6.1, SVG Export Plug-In . SVG Version: 2.1.1 Build 9)  -->
  <path d="M88.02,344.68c-8.46,0-15.34-6.88-15.34-15.34V70.67c0-8.46,6.88-15.34,15.34-15.34,2.68,0,5.25.7,7.64,2.08l224.01,129.33c4.8,2.77,7.66,7.73,7.66,13.27s-2.86,10.5-7.66,13.27l-224.01,129.33c-2.39,1.38-4.95,2.08-7.63,2.08Z"/>
  <path d="M88.02,54.82v1c2.59,0,5.08.68,7.38,2.01l224.01,129.33c4.64,2.68,7.41,7.48,7.41,12.83s-2.77,10.15-7.41,12.83l-224.01,129.33c-2.31,1.33-4.79,2.01-7.39,2.01-8.18,0-14.84-6.66-14.84-14.84V70.67c0-8.18,6.66-14.84,14.84-14.84v-1M88.02,54.82c-8.26,0-15.84,6.61-15.84,15.84v258.67c0,9.23,7.58,15.84,15.84,15.84,2.63,0,5.34-.67,7.89-2.14l224.01-129.33c10.55-6.09,10.55-21.31,0-27.4L95.9,56.97c-2.55-1.47-5.25-2.14-7.89-2.14h0Z"/>
</svg>