<?xml version="1.0" encoding="UTF-8"?>
<svg id="_레이어_1" data-name="레이어_1" xmlns="http://www.w3.org/2000/svg" version="1.1" viewBox="0 0 400 400">
  <!-- Generator: Adobe Illustrator 29.6.1, SVG Export Plug-In . SVG Version: 2.1.1 Build 9)  -->
  <path d="M384.57,85.31c-.41.71-12.72,21.6-30.84,35.06-1.62,1.22-3.28,2.36-4.99,3.43,0,0-.1.44-.32,1.28,0,6.72-.28,14.07-.87,21.74-1.5,19.64-4.66,36.82-8.23,46.81-.47,1.31-.94,2.5-1.42,3.55-5.91,20.52-16.01,41.76-30.2,61.92-12.12,17.92-21.06,26.55-32.79,37.01-9.19,10.25-47.34,34.63-64.27,40.23-6.29,2.08-12.43,3.79-18.24,5.12-2.66,1.35-16.95,4.54-19.67,4.55-42.82,10.92-94.79,5.03-157.3-29.86,0,0,59.33,10.11,112.74-31.51,0,0-52.72,2.77-71.16-52.93,0,0,23.25,3.15,34.41-1.27,0,0-62.34-11.92-61.09-75.67,0,0,22.8,12.84,34.52,9.55,0,0-56.89-37.2-23.58-101.75,0,0,39.89,60.64,134.38,76.74,5.15.88,10.47,1.63,15.96,2.23-.02-.67-.03-1.35-.03-2.02,0-30.46,13.63-57.4,34.53-73.8.02-.02.03-.03.05-.04,7.82-6.13,16.65-10.78,26.17-13.59,6.78-2,13.9-3.07,21.25-3.07,21.23,0,40.58,8.91,55.14,23.52,5.28-1.35,41.08-10.68,47.73-18.28-.38.98-12.34,30.81-30.92,40.87-.13.07-.25.13-.38.2-.71.37-1.44.72-2.17,1.03.16-.02,1.06-.16,2.49-.4.09-.02.18-.03.28-.05,8.63-1.48,34.63-6.22,38.82-10.6Z"/>
</svg>