<?xml version="1.0" encoding="UTF-8"?>
<svg id="_레이어_1" data-name="레이어_1" xmlns="http://www.w3.org/2000/svg" version="1.1" viewBox="0 0 400 400">
  <!-- Generator: Adobe Illustrator 29.7.1, SVG Export Plug-In . SVG Version: 2.1.1 Build 8)  -->
  <path d="M197.51,108.76c50.18,0,91,40.82,91,91,0,17.15-4.78,33.83-13.83,48.23l-5.51,8.76,3.97,9.56,8.58,20.62-37.92-4.94-5.44-.71-5.04,2.16c-11.31,4.86-23.36,7.32-35.81,7.32-50.18,0-91-40.82-91-91s40.82-91,91-91M197.51,88.76c-61.3,0-111,49.7-111,111s49.7,111,111,111c15.52,0,30.28-3.18,43.7-8.94l72.28,9.42-21.88-52.61c10.72-17.06,16.9-37.25,16.9-58.87,0-61.3-49.71-111-111-111h0Z"/>
</svg>