<?xml version="1.0" encoding="UTF-8"?>
<svg id="_레이어_1" data-name="레이어_1" xmlns="http://www.w3.org/2000/svg" version="1.1" viewBox="0 0 400 400">
  <!-- Generator: Adobe Illustrator 29.7.1, SVG Export Plug-In . SVG Version: 2.1.1 Build 8)  -->
  <path d="M200,81.75c30.53,0,59.27,12.22,80.92,34.41,21.81,22.36,33.83,52.13,33.83,83.84s-12.01,61.48-33.83,83.84c-21.65,22.19-50.39,34.41-80.92,34.41s-59.27-12.22-80.92-34.41c-21.81-22.36-33.83-52.13-33.83-83.84s12.01-61.48,33.83-83.84c21.65-22.19,50.39-34.41,80.92-34.41M200,56.75c-77.18,0-139.75,64.14-139.75,143.25s62.57,143.25,139.75,143.25,139.75-64.14,139.75-143.25S277.18,56.75,200,56.75h0Z"/>
  <g>
    <path d="M248.06,150.91l-24.35,51.68-26.37-26.87,50.72-24.81M279.82,118.68l-107.77,52.7,56.04,57.09,51.73-109.79h0Z"/>
    <g>
      <polygon points="174.1 184.47 215.3 226.45 136.06 265.21 174.1 184.47"/>
      <path d="M176.29,197.41l26.37,26.87-50.72,24.81,24.35-51.68M171.91,171.53l-51.73,109.79,107.77-52.7-56.04-57.09h0Z"/>
    </g>
  </g>
</svg>