<?xml version="1.0" encoding="UTF-8"?>
<svg id="_레이어_1" data-name="레이어_1" xmlns="http://www.w3.org/2000/svg" version="1.1" viewBox="0 0 400 400">
  <!-- Generator: Adobe Illustrator 29.7.1, SVG Export Plug-In . SVG Version: 2.1.1 Build 8)  -->
  <defs>
    <style>
      .st0, .st1 {
        fill: #fff;
      }

      .st1, .st2 {
        stroke: #000;
        stroke-miterlimit: 10;
      }

      .st2 {
        fill: none;
        stroke-linecap: round;
        stroke-width: 10px;
      }
    </style>
  </defs>
  <g>
    <path class="st0" d="M200,324c-68.37,0-124-55.63-124-124s55.63-124,124-124,124,55.63,124,124-55.63,124-124,124Z"/>
    <path d="M200,77.5c32.72,0,63.48,12.74,86.62,35.88,23.14,23.14,35.88,53.9,35.88,86.62s-12.74,63.48-35.88,86.62c-23.14,23.14-53.9,35.88-86.62,35.88s-63.48-12.74-86.62-35.88c-23.14-23.14-35.88-53.9-35.88-86.62s12.74-63.48,35.88-86.62,53.9-35.88,86.62-35.88M200,74.5c-69.31,0-125.5,56.19-125.5,125.5s56.19,125.5,125.5,125.5,125.5-56.19,125.5-125.5-56.19-125.5-125.5-125.5h0Z"/>
  </g>
  <path class="st1" d="M237.52,165.4"/>
  <path class="st1" d="M237.52,165.4"/>
  <g>
    <line class="st2" x1="128.25" y1="199.6" x2="251.75" y2="128.56"/>
    <line class="st2" x1="251.75" y1="271.44" x2="128.25" y2="199.6"/>
  </g>
</svg>