<?xml version="1.0" encoding="UTF-8"?>
<svg id="_레이어_1" data-name="레이어_1" xmlns="http://www.w3.org/2000/svg" version="1.1" viewBox="0 0 400 400">
  <!-- Generator: Adobe Illustrator 29.7.1, SVG Export Plug-In . SVG Version: 2.1.1 Build 8)  -->
  <path d="M284.59,82.01c-6.36-1.89-12.78-2.79-19.09-2.79-28.89,0-55.57,18.84-64.21,47.95-.5,1.71-.9,3.43-1.21,5.16,0,.05-.04.07-.08.07s-.07-.02-.08-.07c-.31-1.73-.7-3.46-1.21-5.16-8.64-29.11-35.31-47.95-64.21-47.95-6.31,0-12.73.9-19.09,2.79-35.47,10.53-55.69,47.83-45.16,83.3,3.41,11.48,9.42,21.19,17.35,30.32l112,124.7.4.44.4-.44,112-124.7c7.93-9.13,13.94-18.84,17.35-30.32,10.53-35.47-9.69-72.77-45.16-83.3ZM193.08,151.17h-.48c0-.07,0-.13-.01-.19.16.07.33.13.49.19Z"/>
</svg>