<?xml version="1.0" encoding="UTF-8"?>
<svg id="_레이어_1" data-name="레이어_1" xmlns="http://www.w3.org/2000/svg" version="1.1" viewBox="0 0 400 400">
  <!-- Generator: Adobe Illustrator 29.7.1, SVG Export Plug-In . SVG Version: 2.1.1 Build 8)  -->
  <path d="M248.15,80.25v96.3h-96.3v-96.3h96.3M250.41,64.25h-100.81c-7.56,0-13.75,6.19-13.75,13.75v100.81c0,7.56,6.19,13.75,13.75,13.75h100.81c7.56,0,13.75-6.19,13.75-13.75v-100.81c0-7.56-6.19-13.75-13.75-13.75h0Z"/>
  <g>
    <path d="M171.97,223.45v96.3h-96.3v-96.3h96.3M174.22,207.45h-100.81c-7.56,0-13.75,6.19-13.75,13.75v100.81c0,7.56,6.19,13.75,13.75,13.75h100.81c7.56,0,13.75-6.19,13.75-13.75v-100.81c0-7.56-6.19-13.75-13.75-13.75h0Z"/>
    <path d="M324.33,223.45v96.3h-96.3v-96.3h96.3M326.59,207.45h-100.81c-7.56,0-13.75,6.19-13.75,13.75v100.81c0,7.56,6.19,13.75,13.75,13.75h100.81c7.56,0,13.75-6.19,13.75-13.75v-100.81c0-7.56-6.19-13.75-13.75-13.75h0Z"/>
  </g>
</svg>