<?xml version="1.0" encoding="UTF-8"?>
<svg id="_레이어_1" data-name="레이어_1" xmlns="http://www.w3.org/2000/svg" version="1.1" viewBox="0 0 400 400">
  <!-- Generator: Adobe Illustrator 29.7.1, SVG Export Plug-In . SVG Version: 2.1.1 Build 8)  -->
  <path d="M265.5,99.23c4.51,0,9.01.66,13.4,1.96,12.03,3.57,21.96,11.62,27.94,22.66,5.98,11.04,7.31,23.74,3.74,35.78-2.33,7.85-6.52,15.09-13.17,22.78l-97.4,108.45-97.4-108.45c-6.65-7.69-10.84-14.93-13.17-22.78-3.57-12.03-2.24-24.74,3.74-35.78,5.98-11.04,15.91-19.08,27.94-22.66,4.38-1.3,8.89-1.96,13.4-1.96,9.91,0,19.8,3.26,27.85,9.17,8.3,6.1,14.24,14.56,17.17,24.44.27.92.51,1.93.7,3.01,1.71,9.59,10.03,16.55,19.77,16.55s18.06-6.96,19.77-16.56c.19-1.07.43-2.08.69-2.98,2.94-9.91,8.88-18.37,17.18-24.46,8.05-5.92,17.94-9.18,27.86-9.18h0M265.5,79.23c-28.89,0-55.57,18.84-64.21,47.95-.5,1.71-.9,3.43-1.21,5.16,0,.05-.04.07-.08.07s-.07-.02-.08-.07c-.31-1.73-.7-3.46-1.21-5.16-8.64-29.11-35.31-47.95-64.21-47.95-6.31,0-12.73.9-19.09,2.79-35.47,10.53-55.69,47.83-45.16,83.3,3.41,11.48,9.42,21.19,17.35,30.32l112,124.7.4.44.4-.44,112-124.7c7.93-9.13,13.94-18.84,17.35-30.32,10.53-35.47-9.69-72.77-45.16-83.3-6.36-1.89-12.78-2.79-19.09-2.79h0Z"/>
</svg>