<?xml version="1.0" encoding="UTF-8"?>
<svg id="_레이어_1" data-name="레이어_1" xmlns="http://www.w3.org/2000/svg" version="1.1" viewBox="0 0 400 400">
  <!-- Generator: Adobe Illustrator 29.7.1, SVG Export Plug-In . SVG Version: 2.1.1 Build 8)  -->
  <defs>
    <style>
      .st0 {
        fill: #fff;
      }
    </style>
  </defs>
  <g>
    <polygon class="st0" points="197 330.18 197 331 196.49 330.6 197 330.18"/>
    <polygon points="197 330.18 196.49 330.6 197 331 197 330.18 197 330.18"/>
  </g>
  <path d="M127,95.69c24.04,0,45.28,18.29,51.66,44.49.84,3.43,1.41,6.95,1.69,10.47.84,10.39,9.52,18.39,19.93,18.39.06,0,.12,0,.18,0,10.49-.09,19.12-8.27,19.78-18.74.31-4.9,1.18-9.76,2.59-14.45,7.15-23.76,27.18-39.73,49.85-39.73,5.56,0,11.11.98,16.5,2.92,13.59,4.88,24.73,15.3,31.36,29.35,6.79,14.39,8,30.73,3.4,46-3.96,13.16-11.21,23.22-25.88,35.89-.07.06-.15.13-.22.2l-97.95,87.2-100.66-87.39c-13.91-13.79-20.64-24.55-23.98-38.26-3.89-15.98-1.88-32.63,5.69-46.87,7.3-13.76,18.91-23.53,32.68-27.53,4.4-1.28,8.91-1.93,13.39-1.93M127,75.69c-6.26,0-12.63.88-18.96,2.72-39.29,11.41-62.67,55.43-52.22,98.34,4.75,19.53,15.08,33.69,29.81,48.2l114.02,98.99.41.35.42-.38,110.65-98.51c15.34-13.25,26.29-26.43,31.96-45.27,12.46-41.36-8.65-86.11-47.15-99.93-7.73-2.78-15.57-4.09-23.26-4.09-30.65,0-59.04,20.91-68.99,53.97-1.89,6.28-3,12.63-3.4,18.96-.37-4.52-1.09-9.06-2.2-13.6-8.76-35.99-38.53-59.75-71.09-59.75h0Z"/>
  <g>
    <polygon class="st0" points="196.49 330.6 196 331 196 330.21 196.49 330.6"/>
    <polygon points="196 330.21 196 331 196.49 330.6 196 330.21 196 330.21"/>
  </g>
</svg>