<?xml version="1.0" encoding="UTF-8"?>
<svg id="_레이어_1" data-name="레이어_1" xmlns="http://www.w3.org/2000/svg" version="1.1" viewBox="0 0 400 400">
  <!-- Generator: Adobe Illustrator 29.7.1, SVG Export Plug-In . SVG Version: 2.1.1 Build 8)  -->
  <defs>
    <style>
      .st0 {
        fill: none;
        stroke: #000;
        stroke-miterlimit: 10;
        stroke-width: 20px;
      }
    </style>
  </defs>
  <polygon points="164.75 284.18 164.75 165.82 267.25 225 164.75 284.18"/>
  <g>
    <path d="M294.72,111c9.42,0,17.38,9.5,17.38,20.75v136.5c0,11.25-7.96,20.75-17.38,20.75H105.28c-9.42,0-17.38-9.5-17.38-20.75v-136.5c0-11.25,7.96-20.75,17.38-20.75h189.44M294.72,91H105.28c-20.56,0-37.38,18.34-37.38,40.75v136.5c0,22.41,16.82,40.75,37.38,40.75h189.44c20.56,0,37.38-18.34,37.38-40.75v-136.5c0-22.41-16.82-40.75-37.38-40.75h0Z"/>
    <line class="st0" x1="70.65" y1="150.5" x2="329.81" y2="150.5"/>
    <line class="st0" x1="116.73" y1="95.03" x2="144.5" y2="151.5"/>
    <line class="st0" x1="255.04" y1="94.9" x2="282.81" y2="151.37"/>
    <line class="st0" x1="186.24" y1="94.9" x2="214" y2="151.37"/>
  </g>
</svg>